# xmcd
#
# Track frame offsets: 
#        150
#        16704
#        43674
#        61021
#        81624
#        104334
#        132574
#        171164
#        211611
#        236714
#
# Disc length: 3574 seconds
#
# Revision: 0
# Processed by: cddbd v1.5.2PL0 Copyright (c) Steve Scherf et al.
# Submitted via: ExactAudioCopy v0.99pb4
#
DISCID=810df40a
DTITLE=Eric Clapton - One more car one more rider
DYEAR=1900
DGENRE=Blues
TTITLE0=Key to the highway
TTITLE1=Reptile
TTITLE2=Got you on my mind
TTITLE3=Tears in heaven
TTITLE4=Bell bottom blues
TTITLE5=Change the world
TTITLE6=My father´s eyes
TTITLE7=River of tears
TTITLE8=Going down slow
TTITLE9=She´s gone
EXTD=
EXTT0=
EXTT1=
EXTT2=
EXTT3=
EXTT4=
EXTT5=
EXTT6=
EXTT7=
EXTT8=
EXTT9=
PLAYORDER=
